<?xml version="1.0" encoding="UTF-8"?>
<svg xmlns="http://www.w3.org/2000/svg" onmouseup="{ if(window.parent.document.onmouseup) window.parent.document.onmouseup(arguments[0]);}" xml:space="preserve" style="enable-background:new 0 0 148.06 66.7;" viewBox="0 0 148.06 66.7" y="0px" x="0px" version="1.1" xmlns:xlink="http://www.w3.org/1999/xlink"><style type="text/css">
	.st0{fill:none;stroke:#999999;stroke-miterlimit:10;}
	.st1{fill:none;stroke:#999999;stroke-width:0.5;stroke-miterlimit:10;stroke-dasharray:12;}
	.st2{fill:#006EF5;}
	.st3{fill:#D53692;}
	.st4{fill:#FCBB45;}
	.st5{fill:#8F39CE;}
	.st6{fill:#FF0000;}
	.st7{fill:#33CCFF;}
	.st8{fill:#00D95F;}
	.st9{fill:#FFFFFF;}
	.st10{fill:url(#SVGID_1_);}
	.st11{fill:#337FFF;}
	.st12{fill-rule:evenodd;clip-rule:evenodd;fill:#EE1D52;}
	.st13{fill-rule:evenodd;clip-rule:evenodd;fill:#FFFFFF;}
	.st14{fill-rule:evenodd;clip-rule:evenodd;fill:#69C9D0;}
	.st15{fill:url(#SVGID_00000042720617258937912130000017524019374410580874_);}
	.st16{fill:url(#SVGID_00000140696397881038810090000008992012430017491877_);}
	.st17{fill:url(#SVGID_00000137850313698563309720000007507444000210825137_);}
	.st18{fill-rule:evenodd;clip-rule:evenodd;fill:#FF0000;}
	.st19{fill-rule:evenodd;clip-rule:evenodd;fill:#00D95F;}
	.st20{fill-rule:evenodd;clip-rule:evenodd;}
</style><g id="BACKGROUND"/><g id="ELEMENTS"><rect data-cppathid="10000" height="66.7" width="148.13"/><path data-cppathid="10001" d="M72.24,11.73c-0.56,0.25-1.19,0.41-1.79,0.51c0.29-0.05,0.71-0.57,0.88-0.78c0.26-0.32,0.47-0.69,0.6-1.09   c0.02-0.03,0.03-0.07,0-0.09c-0.04-0.02-0.06-0.01-0.1,0.01c-0.68,0.36-1.38,0.63-2.13,0.81c-0.06,0.02-0.11,0-0.15-0.04   c-0.06-0.07-0.12-0.14-0.19-0.19c-0.31-0.27-0.65-0.48-1.03-0.63c-0.5-0.2-1.04-0.29-1.58-0.25c-0.52,0.03-1.04,0.18-1.5,0.42   c-0.46,0.24-0.88,0.58-1.21,0.99c-0.34,0.42-0.59,0.92-0.72,1.45c-0.13,0.54-0.11,1.08-0.02,1.63c-3.02-0.43-5.5-1.51-7.51-3.86   c-0.98,1.28-0.57,3.46,0.54,4.51c0.14,0.14,0.29,0.27,0.45,0.4c-0.06,0.01-0.77-0.07-1.41-0.4c-0.09-0.05-0.13-0.02-0.14,0.07   c-0.01,0.14,0,0.27,0.02,0.42c0.17,1.31,1.07,2.52,2.31,2.99c0.15,0.06,0.31,0.12,0.47,0.14c-0.28,0.06-0.57,0.11-1.38,0.04   c-0.1-0.02-0.14,0.03-0.1,0.13c0.61,1.66,1.92,2.15,2.91,2.43c0.13,0.02,0.26,0.02,0.4,0.05c-0.01,0.01-0.02,0.01-0.02,0.02   c-0.33,0.5-1.46,0.87-1.99,1.05c-0.96,0.34-2,0.49-3.02,0.39c-0.16-0.02-0.2-0.02-0.24,0c-0.04,0.03-0.01,0.07,0.05,0.11   c0.21,0.14,0.42,0.26,0.63,0.37c0.64,0.34,1.31,0.61,2.02,0.81c3.62,1,7.7,0.27,10.42-2.44c2.14-2.12,2.89-5.05,2.89-7.98   c0-0.11,0.14-0.18,0.22-0.24c0.56-0.42,1-0.92,1.42-1.48c0.09-0.13,0.09-0.24,0.09-0.28c0-0.01,0-0.02,0-0.02   C72.31,11.69,72.31,11.7,72.24,11.73z" class="st9"/><g><path data-cppathid="10002" d="M42.14,12.59c-0.47,0-0.86,0.38-0.86,0.86s0.38,0.86,0.86,0.86c0.47,0,0.86-0.38,0.86-0.86    S42.61,12.59,42.14,12.59z" class="st9"/><path data-cppathid="10003" d="M38.33,13.69c-1.99,0-3.6,1.62-3.6,3.6c0,1.99,1.62,3.6,3.6,3.6s3.6-1.62,3.6-3.6    C41.93,15.31,40.31,13.69,38.33,13.69z M38.33,19.61c-1.27,0-2.31-1.04-2.31-2.31c0-1.27,1.04-2.31,2.31-2.31s2.31,1.04,2.31,2.31    C40.64,18.57,39.6,19.61,38.33,19.61z" class="st9"/><path data-cppathid="10004" d="M41.19,24.61h-5.84c-2.42,0-4.39-1.97-4.39-4.39v-5.84c0-2.42,1.97-4.39,4.39-4.39h5.84    c2.42,0,4.39,1.97,4.39,4.39v5.84C45.58,22.64,43.61,24.61,41.19,24.61z M35.35,11.36c-1.66,0-3.02,1.35-3.02,3.02v5.84    c0,1.66,1.35,3.02,3.02,3.02h5.84c1.66,0,3.02-1.35,3.02-3.02v-5.84c0-1.66-1.35-3.02-3.02-3.02H35.35z" class="st9"/></g><path data-cppathid="10005" d="M135.75,10.73c-2.12-0.24-4.45,0.55-5.7,2.51c-1.13,1.77-0.88,3.86-0.03,4.92c0.25,0.31,0.56,0.55,0.93,0.7   c0.19,0.08,0.35,0.01,0.4-0.18c0.07-0.25,0.13-0.51,0.19-0.76c0.04-0.16-0.06-0.26-0.18-0.42c-1-1.26-0.5-4.02,1.73-5.05   c1.94-0.9,5-0.3,5.17,2.5c0.08,1.4-0.36,3.37-1.49,4.2c-1.23,0.89-2.67,0.02-2.36-1.2c0.37-1.48,0.86-2.49,0.67-3.25   c-0.3-1.24-2-1.12-2.48,0.38c-0.22,0.7-0.17,1.38,0.08,2.06c0.02,0.06,0.04,0.12,0.02,0.18c-1.05,4.41-1.15,5.11-1.18,5.92   c-0.01,0.18,0,0.35,0.01,0.53h1.26c0.48-0.91,0.55-1.79,1.05-3.75c0.01-0.03,0.02-0.07,0.03-0.11c0.08,0.1,0.15,0.2,0.23,0.28   c1.08,1.1,3.43,0.98,4.87-0.81c1.26-1.56,1.36-3.77,1.22-4.66C139.88,12.75,138.28,11.02,135.75,10.73z" class="st9"/><path data-cppathid="10006" d="M117.2,15.5c0-1.65-1.34-3-3-3h-7.66c-1.65,0-3,1.34-3,3v3.57c0,1.65,1.34,3,3,3h7.66c1.65,0,3-1.34,3-3V15.5z    M112.69,17.55l-3.44,1.7c-0.13,0.07-0.59-0.02-0.59-0.18v-3.49c0-0.16,0.46-0.25,0.6-0.18l3.29,1.79   C112.69,17.28,112.83,17.48,112.69,17.55z" class="st9"/><g><path data-cppathid="10007" d="M82.85,12.14c0,0.79-0.6,1.43-1.54,1.43c-0.9,0-1.5-0.64-1.48-1.43c-0.02-0.83,0.58-1.45,1.5-1.45    S82.83,11.31,82.85,12.14z M79.9,23.88v-9.19h2.86v9.19H79.9z" class="st9"/><path data-cppathid="10008" d="M85.05,17.62c0-1.15-0.04-2.12-0.08-2.93h2.48l0.13,1.26h0.06c0.38-0.58,1.32-1.47,2.84-1.47    c1.88,0,3.29,1.24,3.29,3.95v5.45h-2.86v-5.09c0-1.18-0.41-1.99-1.45-1.99c-0.79,0-1.26,0.55-1.45,1.07    c-0.08,0.17-0.11,0.45-0.11,0.71v5.3h-2.86V17.62z" class="st9"/></g><path data-cppathid="10009" d="M14.5,10.42c-3.91,0.05-7.04,3.27-6.99,7.18c0.05,3.91,3.27,7.04,7.18,6.99c3.91-0.05,7.04-3.27,6.99-7.18   C21.63,13.5,18.41,10.37,14.5,10.42L14.5,10.42z M14.67,23.11c-0.33,0-0.95-0.83-1.35-2.47l2.63-0.04   C15.6,22.26,15,23.1,14.67,23.11L14.67,23.11z M13.06,19.17c-0.06-0.5-0.1-1.04-0.1-1.64c-0.01-0.59,0.01-1.14,0.06-1.64l3.11-0.04   c0.06,0.5,0.1,1.05,0.1,1.64c0.01,0.59-0.01,1.14-0.06,1.64L13.06,19.17z M8.99,17.58c-0.01-0.57,0.07-1.12,0.22-1.64l2.32-0.03   c-0.04,0.54-0.06,1.09-0.06,1.64c0.01,0.55,0.04,1.1,0.1,1.64l-2.32,0.03C9.09,18.7,9,18.15,8.99,17.58L8.99,17.58z M14.52,11.9   c0.33,0,0.95,0.83,1.35,2.47l-2.63,0.04C13.59,12.75,14.2,11.91,14.52,11.9L14.52,11.9z M17.62,15.83l2.32-0.03   c0.17,0.52,0.26,1.07,0.27,1.64c0.01,0.57-0.07,1.12-0.22,1.64l-2.32,0.03c0.04-0.54,0.06-1.09,0.06-1.64   C17.71,16.91,17.68,16.36,17.62,15.83L17.62,15.83z M19.21,14.32l-1.83,0.02c-0.16-0.75-0.38-1.44-0.65-2.02   C17.74,12.74,18.6,13.44,19.21,14.32L19.21,14.32z M12.32,12.39c-0.25,0.59-0.45,1.29-0.59,2.04L9.9,14.45   C10.49,13.55,11.33,12.83,12.32,12.39L12.32,12.39z M9.99,20.69l1.83-0.02c0.16,0.75,0.38,1.44,0.65,2.02   C11.46,22.27,10.6,21.57,9.99,20.69L9.99,20.69z M16.87,22.63c0.25-0.59,0.45-1.29,0.59-2.04l1.83-0.02   C18.7,21.46,17.87,22.18,16.87,22.63L16.87,22.63z M16.87,22.63" class="st9"/><path data-cppathid="10010" d="M17.67,51.05l-1.05,1.02c-0.44-0.25-1.3-0.79-2.22-1.72c-0.93-0.93-1.47-1.78-1.73-2.23l1.01-1.02   c0.27-0.27,0.27-0.7,0-0.97l-2.8-2.81c-0.27-0.27-0.71-0.27-0.98,0l-1.37,1.36c-0.71,0.71-0.89,1.78-0.45,2.67   c0.66,1.36,1.88,3.41,3.94,5.47c2.06,2.06,4.11,3.28,5.47,3.94c0.32,0.16,0.67,0.23,1.01,0.23c0.61,0,1.21-0.24,1.66-0.69   l1.36-1.37c0.27-0.27,0.27-0.71,0-0.98l-2.88-2.88C18.38,50.79,17.95,50.79,17.67,51.05z M19.38,55.5   c-0.37,0.37-0.94,0.47-1.4,0.24c-1.28-0.62-3.22-1.78-5.17-3.72c-1.95-1.95-3.1-3.89-3.72-5.17c-0.23-0.47-0.13-1.03,0.24-1.4   l0.94-0.93c0.07-0.07,0.19-0.07,0.26,0l1.96,1.97c0.07,0.07,0.07,0.19,0,0.26l-1.14,1.16l0.15,0.34c0.02,0.06,0.63,1.39,2.13,2.89   c1.5,1.5,2.82,2.09,2.88,2.12l0.34,0.15l1.18-1.14c0.07-0.07,0.19-0.07,0.26,0l2.04,2.04c0.07,0.07,0.07,0.19,0,0.26L19.38,55.5z    M16.61,46.54" class="st9"/><path data-cppathid="10011" d="M33.11,55.29h10.5c1.09,0,1.97-0.88,1.97-1.97v-6.56c0-1.08-0.88-1.97-1.97-1.97h-10.5   c-1.08,0-1.97,0.88-1.97,1.97v6.56C31.14,54.41,32.02,55.29,33.11,55.29z M44.27,53.05l-3.01-3.01l3.01-3.01V53.05z M36.97,51.55   c0.38,0.38,0.89,0.58,1.39,0.58s1.01-0.19,1.39-0.58l0.58-0.58l3.01,3.01h-9.96l3.01-3.01L36.97,51.55z M38.83,50.62   c-0.26,0.26-0.67,0.26-0.93,0l-4.52-4.52h9.96L38.83,50.62z M35.46,50.04l-3.01,3.01v-6.02L35.46,50.04z" class="st9"/></g><g id="TEXT"/></svg>